# xmcd
#
# Track frame offsets:
#	150
#	21402
#	42310
#	63572
#	79077
#	103937
#	121427
#	142935
#	166652
#	186535
#
# Disc length: 2726 seconds
#
# Revision: 1
# Processed by: cddbd v1.5.2PL0 Copyright (c) Steve Scherf et al.
# Submitted via: audiograbber 1.83.01
#
DISCID=8b0aa40a
DTITLE=Gina Loren - Wild Honey 
DYEAR=1900
DGENRE=
TTITLE0=Quick Get Away
TTITLE1=It´s Up To You
TTITLE2=Velvet Tuch
TTITLE3=Fever
TTITLE4=Though You´re Gone
TTITLE5=Jalapeno Heat
TTITLE6=The Life And Times Of Me
TTITLE7=Free
TTITLE8=Wild Honey 
TTITLE9=I Wouldn´t Have Missed You For The World
EXTD=
EXTT0=
EXTT1=
EXTT2=
EXTT3=
EXTT4=
EXTT5=
EXTT6=
EXTT7=
EXTT8=
EXTT9=
PLAYORDER=
